<?xml version="1.0" standalone="no"?>
<!DOCTYPE svg PUBLIC "-//W3C//DTD SVG 20010904//EN"
 "http://www.w3.org/TR/2001/REC-SVG-20010904/DTD/svg10.dtd">
<svg version="1.0" xmlns="http://www.w3.org/2000/svg"
 width="640.000000pt" height="640.000000pt" viewBox="0 0 640.000000 640.000000"
 preserveAspectRatio="xMidYMid meet">
<metadata>
Created by potrace 1.11, written by Peter Selinger 2001-2013
</metadata>
<g transform="translate(0.000000,640.000000) scale(0.100000,-0.100000)"
fill="#000000" stroke="none">
<path d="M31 5198 c17 -40 46 -106 65 -146 19 -40 34 -74 34 -76 0 -3 15 -37
34 -78 31 -67 156 -344 194 -430 9 -20 23 -38 32 -40 8 -2 373 -3 811 -2 l797
0 0 -1093 c0 -671 4 -1099 10 -1106 5 -7 33 -57 62 -112 29 -55 65 -122 80
-150 37 -68 89 -165 136 -254 22 -40 53 -99 69 -130 17 -31 59 -110 95 -176
35 -66 83 -156 107 -200 l43 -80 0 55 c1 30 1 825 2 1766 l0 1710 225 0 224 1
106 -101 c58 -56 117 -107 132 -115 22 -12 253 -15 1564 -15 l1538 -1 -24 20
c-14 11 -51 36 -83 56 -33 21 -301 190 -596 377 -296 188 -557 352 -581 366
l-44 26 -2531 0 -2531 0 30 -72z"/>
<path d="M4287 4004 c-1 -1 -22 -5 -47 -9 -103 -15 -253 -97 -389 -213 l-65
-54 -12 34 c-19 54 -51 112 -73 130 -19 16 -40 21 -146 33 -27 3 -68 7 -90 10
-22 2 -71 7 -110 10 -38 3 -77 8 -85 10 -8 2 -48 7 -87 10 l-73 7 -1 -29 c0
-15 -2 -37 -4 -48 -13 -65 -19 -218 -19 -415 1 -197 5 -259 30 -400 2 -14 9
-59 14 -100 6 -41 12 -81 14 -90 3 -8 7 -37 11 -65 6 -50 22 -158 50 -330 8
-49 17 -108 20 -130 7 -51 24 -161 31 -200 3 -16 7 -46 9 -65 8 -73 17 -106
40 -146 l24 -41 320 1 c176 1 323 5 327 8 8 9 11 43 29 428 3 58 7 123 9 145
3 22 7 72 11 110 39 403 315 816 486 725 29 -16 123 -164 179 -283 59 -127 86
-206 100 -294 6 -37 14 -81 16 -98 8 -47 11 -423 4 -499 -5 -66 -5 -70 27
-110 l32 -41 214 -3 213 -3 1 28 c3 85 2 437 -2 488 -14 203 -28 322 -61 535
-39 253 -110 459 -198 575 -37 48 -32 43 -127 127 -92 82 -163 126 -272 168
-45 17 -91 36 -102 40 -29 12 -89 30 -122 36 -29 6 -122 11 -126 8z"/>
</g>
</svg>
